# xmcd
#
# Track frame offsets:
#	150
#	16445
#	28025
#	40353
#	51025
#	67087
#	78441
#	87341
#	100811
#	113753
#	130740
#	142500
#	153032
#	164559
#	174478
#	188523
#	212645
#	224023
#	241447
#	264015
#	273095
#	282418
#	295243
#	309016
#	323802
#	335043
#
# Disc length: 4757 seconds
#
# Revision: 0
# Processed by: cddbd v1.5.2PL0 Copyright (c) Steve Scherf et al.
# Submitted via: EasyCDDAExtractor 15.2.5.1
#
DISCID=6c12931a
DTITLE=Amber Digby - Live At Swiss Alp Hall
DYEAR=2011
DGENRE=Country
TTITLE0=Introdution By Tracy Pitcox and Texax Honky Tonk
TTITLE1=Love Is The Foundation
TTITLE2=I'M Walking Slow (And Thinking 'Bout Him)
TTITLE3=All Of Me Belongs To You
TTITLE4=Together Again
TTITLE5=I'll Go DownSwinging
TTITLE6=A DimeAt A Time
TTITLE7=Here I Am Again
TTITLE8=Deep As Your Pocket
TTITLE9=After It Breaks
TTITLE10=Lie To Him
TTITLE11=Keeping Up Appearances
TTITLE12=Lead Me On
TTITLE13=Wish I Didn't Have to miss You
TTITLE14=How's The World Treating You
TTITLE15=If Anyone Ought To Know
TTITLE16=How Do You Drink The Wine
TTITLE17=Introduction Of Midnight Flyer/Blistered
TTITLE18=Sing A Sad Song
TTITLE19=AIN't Nothin' Shakin' (But The Leaves)
TTITLE20=Brand New Wrapper
TTITLE21=I'M Gonna Break Every Heart I Can
TTITLE22=Just In Case
TTITLE23=Tearful Earful
TTITLE24=Holdin' On
TTITLE25=Medley: Wine Me Up& Close Up The Honky Tonk
EXTD=
EXTT0=
EXTT1=
EXTT2=
EXTT3=
EXTT4=
EXTT5=
EXTT6=
EXTT7=
EXTT8=
EXTT9=
EXTT10=
EXTT11=
EXTT12=
EXTT13=
EXTT14=
EXTT15=
EXTT16=
EXTT17=
EXTT18=
EXTT19=
EXTT20=
EXTT21=
EXTT22=
EXTT23=
EXTT24=
EXTT25=
PLAYORDER=
